<svg width="16" height="16" viewBox="0 0 16 16" fill="none" xmlns="http://www.w3.org/2000/svg">
<g clip-path="url(#clip0_1_428)">
<path d="M3.26031 10.6357C4.83843 12.5222 6.73814 14.0075 8.9064 15.0584C9.73192 15.4496 10.8359 15.9138 12.0659 15.9934C12.1422 15.9967 12.2151 16 12.2914 16C13.1169 16 13.78 15.7149 14.3204 15.1281C14.3237 15.1247 14.3303 15.1181 14.3337 15.1115C14.526 14.8794 14.7448 14.6705 14.9735 14.4484C15.1294 14.2992 15.2885 14.1434 15.441 13.9843C16.1472 13.2482 16.1472 12.3133 15.4344 11.6005L13.4418 9.60796C13.1037 9.25653 12.6992 9.07087 12.2748 9.07087C11.8504 9.07087 11.4427 9.25653 11.0945 9.60464L9.90764 10.7915C9.79823 10.7286 9.68551 10.6722 9.57942 10.6191C9.4468 10.5528 9.32413 10.4898 9.21472 10.4202C8.13391 9.73394 7.15256 8.83879 6.21431 7.68835C5.74021 7.08827 5.42194 6.58433 5.19981 6.07045C5.51145 5.78864 5.8032 5.49358 6.08501 5.20514C6.18447 5.10236 6.28725 4.99959 6.39003 4.89681C6.74809 4.53875 6.94038 4.12433 6.94038 3.70327C6.94038 3.28222 6.7514 2.8678 6.39003 2.50974L5.40204 1.52176C5.28601 1.40572 5.1766 1.293 5.06388 1.17696C4.84506 0.951513 4.6163 0.719436 4.39085 0.510568C4.04937 0.175715 3.64821 0 3.22384 0C2.80279 0 2.39831 0.175715 2.04357 0.513883L0.803618 1.75383C0.352727 2.20472 0.0974433 2.75176 0.0443973 3.385C-0.0185948 4.17737 0.127282 5.01948 0.505234 6.0373C1.08543 7.6121 1.96068 9.07418 3.26031 10.6357ZM0.853349 3.45462C0.893133 3.01368 1.06222 2.64567 1.38049 2.32739L2.61381 1.09407C2.8061 0.908413 3.01829 0.812267 3.22384 0.812267C3.42608 0.812267 3.63163 0.908413 3.82061 1.1007C4.04274 1.30626 4.25161 1.52176 4.47705 1.75052C4.58978 1.86656 4.70581 1.98259 4.82185 2.10195L5.80983 3.08993C6.01539 3.29548 6.12148 3.50435 6.12148 3.7099C6.12148 3.91546 6.01539 4.12433 5.80983 4.32988C5.70706 4.43266 5.60428 4.53875 5.5015 4.64152C5.19318 4.95317 4.90474 5.24824 4.58646 5.53005C4.57983 5.53668 4.57652 5.53999 4.56988 5.54662C4.29471 5.8218 4.33781 6.08371 4.40412 6.28264C4.40743 6.29258 4.41075 6.29921 4.41406 6.30916C4.66935 6.9225 5.02409 7.50601 5.57776 8.20224C6.57237 9.42893 7.62003 10.3804 8.77378 11.1131C8.91634 11.206 9.06885 11.2789 9.21141 11.3518C9.34402 11.4182 9.46669 11.4811 9.5761 11.5508C9.58936 11.5574 9.59931 11.564 9.61257 11.5707C9.72198 11.627 9.82807 11.6535 9.93416 11.6535C10.1994 11.6535 10.3718 11.4845 10.4282 11.4281L11.6681 10.1881C11.8604 9.99586 12.0693 9.89308 12.2748 9.89308C12.5268 9.89308 12.7323 10.0489 12.8616 10.1881L14.8608 12.184C15.2587 12.5818 15.2553 13.0128 14.8509 13.4339C14.7116 13.5831 14.5657 13.7257 14.4099 13.8748C14.1778 14.1003 13.9358 14.3324 13.717 14.5943C13.3357 15.0054 12.8815 15.1977 12.2947 15.1977C12.2383 15.1977 12.1787 15.1944 12.1223 15.191C11.0349 15.1214 10.0237 14.6971 9.26446 14.3357C7.20229 13.3378 5.3921 11.9221 3.89023 10.1252C2.6536 8.63655 1.82144 7.25072 1.27109 5.76544C0.929603 4.85371 0.800303 4.12101 0.853349 3.45462Z" fill="white"/>
</g>
<defs>
<clipPath id="clip0_1_428">
<rect width="16" height="16" fill="white"/>
</clipPath>
</defs>
</svg>
